<?xml version="1.0" encoding="UTF-8" standalone="no" ?>
<!DOCTYPE svg PUBLIC "-//W3C//DTD SVG 1.1//EN" "http://www.w3.org/Graphics/SVG/1.1/DTD/svg11.dtd">
<svg xmlns="http://www.w3.org/2000/svg" xmlns:xlink="http://www.w3.org/1999/xlink" version="1.1" width="32" height="32" viewBox="0 0 32 32" xml:space="preserve">
<desc>Created with Fabric.js 4.6.0</desc>
<defs>
</defs>
<g transform="matrix(0.14 0 0 0.14 22.56 24.7)" id="bJoQ_6s6R1UPZHoFscBZ8"  >
<path style="stroke: rgb(167,22,160); stroke-width: 0; stroke-dasharray: none; stroke-linecap: butt; stroke-dashoffset: 0; stroke-linejoin: miter; stroke-miterlimit: 4; fill: rgb(30,119,174); fill-rule: nonzero; opacity: 1;" vector-effect="non-scaling-stroke"  transform=" translate(0, 0)" d="M -50 -27.82273 C -50 -40.0709 -40.0709 -50 -27.82273 -50 L 27.822740000000003 -50 L 27.822740000000003 -50 C 40.070910000000005 -50 50.00001 -40.0709 50.00001 -27.82273 L 50.00001 27.822740000000003 L 50.00001 27.822740000000003 C 50.00001 40.070910000000005 40.070910000000005 50.00001 27.822740000000003 50.00001 L -27.82273 50.00001 L -27.82273 50.00001 C -40.0709 50.00001 -50 40.070910000000005 -50 27.822740000000003 z" stroke-linecap="round" />
</g>
<g transform="matrix(0.14 0 0 0.14 7.3 9.44)" id="5OiRMkajl8nbQDISwr-GQ"  >
<path style="stroke: rgb(167,22,160); stroke-width: 0; stroke-dasharray: none; stroke-linecap: butt; stroke-dashoffset: 0; stroke-linejoin: miter; stroke-miterlimit: 4; fill: rgb(30,119,174); fill-rule: nonzero; opacity: 1;" vector-effect="non-scaling-stroke"  transform=" translate(0, 0)" d="M -50 -27.82273 C -50 -40.0709 -40.0709 -50 -27.82273 -50 L 27.822740000000003 -50 L 27.822740000000003 -50 C 40.070910000000005 -50 50.00001 -40.0709 50.00001 -27.82273 L 50.00001 27.822740000000003 L 50.00001 27.822740000000003 C 50.00001 40.070910000000005 40.070910000000005 50.00001 27.822740000000003 50.00001 L -27.82273 50.00001 L -27.82273 50.00001 C -40.0709 50.00001 -50 40.070910000000005 -50 27.822740000000003 z" stroke-linecap="round" />
</g>
<g transform="matrix(0.13 0 0 0.13 24.77 7.23)" id="vk71luT1ORm1bl30D0aFt"  >
<path style="stroke: rgb(30,119,174); stroke-width: 1.7; stroke-dasharray: none; stroke-linecap: butt; stroke-dashoffset: 0; stroke-linejoin: miter; stroke-miterlimit: 4; fill: none; fill-rule: nonzero; opacity: 1;" vector-effect="non-scaling-stroke"  transform=" translate(0, 0)" d="M -50 -27.82273 C -50 -40.0709 -40.0709 -50 -27.82273 -50 L 27.822740000000003 -50 L 27.822740000000003 -50 C 40.070910000000005 -50 50.00001 -40.0709 50.00001 -27.82273 L 50.00001 27.822740000000003 L 50.00001 27.822740000000003 C 50.00001 40.070910000000005 40.070910000000005 50.00001 27.822740000000003 50.00001 L -27.82273 50.00001 L -27.82273 50.00001 C -40.0709 50.00001 -50 40.070910000000005 -50 27.822740000000003 z" stroke-linecap="round" />
</g>
<g transform="matrix(0.14 0 0 0.14 7.3 24.7)" id="4Uf0SaTpeyCvz3nXarO0U"  >
<path style="stroke: rgb(167,22,160); stroke-width: 0; stroke-dasharray: none; stroke-linecap: butt; stroke-dashoffset: 0; stroke-linejoin: miter; stroke-miterlimit: 4; fill: rgb(30,119,174); fill-rule: nonzero; opacity: 1;" vector-effect="non-scaling-stroke"  transform=" translate(0, 0)" d="M -50 -27.82273 C -50 -40.0709 -40.0709 -50 -27.82273 -50 L 27.822740000000003 -50 L 27.822740000000003 -50 C 40.070910000000005 -50 50.00001 -40.0709 50.00001 -27.82273 L 50.00001 27.822740000000003 L 50.00001 27.822740000000003 C 50.00001 40.070910000000005 40.070910000000005 50.00001 27.822740000000003 50.00001 L -27.82273 50.00001 L -27.82273 50.00001 C -40.0709 50.00001 -50 40.070910000000005 -50 27.822740000000003 z" stroke-linecap="round" />
</g>
</svg>