<?xml version="1.0" encoding="UTF-8" standalone="no" ?>
<!DOCTYPE svg PUBLIC "-//W3C//DTD SVG 1.1//EN" "http://www.w3.org/Graphics/SVG/1.1/DTD/svg11.dtd">
<svg xmlns="http://www.w3.org/2000/svg" xmlns:xlink="http://www.w3.org/1999/xlink" version="1.1" width="48" height="48" viewBox="0 0 48 48" xml:space="preserve">
<desc>Created with Fabric.js 4.6.0</desc>
<defs>
</defs>
<g transform="matrix(0.21 0 0 0.21 10.39 37.5)" id="bpJqWT24hco9NTqYKlS17"  >
<path style="stroke: rgb(164,18,180); stroke-width: 0; stroke-dasharray: none; stroke-linecap: butt; stroke-dashoffset: 0; stroke-linejoin: miter; stroke-miterlimit: 4; fill: rgb(15,89,135); fill-rule: nonzero; opacity: 1;" vector-effect="non-scaling-stroke"  transform=" translate(0, 0)" d="M -50 -28.7868 C -50 -40.50253 -40.50253 -50 -28.7868 -50 L 28.786790000000003 -50 L 28.786790000000003 -50 C 40.502520000000004 -50 49.999990000000004 -40.50253 49.999990000000004 -28.7868 L 49.999990000000004 28.786790000000003 L 49.999990000000004 28.786790000000003 C 49.999990000000004 40.502520000000004 40.502520000000004 49.999990000000004 28.786790000000003 49.999990000000004 L -28.7868 49.999990000000004 L -28.7868 49.999990000000004 C -40.50253 49.999990000000004 -50 40.502520000000004 -50 28.786790000000003 z" stroke-linecap="round" />
</g>
<g transform="matrix(0.21 0 0 0.21 10.35 14.89)" id="AibEkJtj9mB_PhMeFaJcQ"  >
<path style="stroke: rgb(164,18,180); stroke-width: 0; stroke-dasharray: none; stroke-linecap: butt; stroke-dashoffset: 0; stroke-linejoin: miter; stroke-miterlimit: 4; fill: rgb(15,89,135); fill-rule: nonzero; opacity: 1;" vector-effect="non-scaling-stroke"  transform=" translate(0, 0)" d="M -50 -28.78686 C -50 -40.50255 -40.50256 -50 -28.78686 -50 L 28.786869999999997 -50 L 28.786869999999997 -50 C 40.502559999999995 -50 50.000009999999996 -40.50256 50.000009999999996 -28.78686 L 50.000009999999996 28.786869999999997 L 50.000009999999996 28.786869999999997 C 50.000009999999996 40.502559999999995 40.50257 50.000009999999996 28.786869999999997 50.000009999999996 L -28.78686 50.000009999999996 L -28.78686 50.000009999999996 C -40.50255 50.000009999999996 -50 40.50257 -50 28.786869999999997 z" stroke-linecap="round" />
</g>
<g transform="matrix(0.21 0 0 0.21 33.3 37.5)" id="X_M0GmU7bmgZcGzHX_QIa"  >
<path style="stroke: rgb(164,18,180); stroke-width: 0; stroke-dasharray: none; stroke-linecap: butt; stroke-dashoffset: 0; stroke-linejoin: miter; stroke-miterlimit: 4; fill: rgb(15,89,135); fill-rule: nonzero; opacity: 1;" vector-effect="non-scaling-stroke"  transform=" translate(0, 0)" d="M -50 -28.78686 C -50 -40.50255 -40.50256 -50 -28.78686 -50 L 28.786869999999997 -50 L 28.786869999999997 -50 C 40.502559999999995 -50 50.000009999999996 -40.50256 50.000009999999996 -28.78686 L 50.000009999999996 28.786869999999997 L 50.000009999999996 28.786869999999997 C 50.000009999999996 40.502559999999995 40.50257 50.000009999999996 28.786869999999997 50.000009999999996 L -28.78686 50.000009999999996 L -28.78686 50.000009999999996 C -40.50255 50.000009999999996 -50 40.50257 -50 28.786869999999997 z" stroke-linecap="round" />
</g>
<g transform="matrix(0.21 0 0 0.21 36.65 11.35)" id="hWG6d6pfqAdovrTHpHnW1"  >
<path style="stroke: rgb(15,89,135); stroke-width: 2; stroke-dasharray: none; stroke-linecap: butt; stroke-dashoffset: 0; stroke-linejoin: miter; stroke-miterlimit: 4; fill: none; fill-rule: nonzero; opacity: 1;" vector-effect="non-scaling-stroke"  transform=" translate(0, 0)" d="M -50 -28.78686 C -50 -40.50255 -40.50256 -50 -28.78686 -50 L 28.786869999999997 -50 L 28.786869999999997 -50 C 40.502559999999995 -50 50.000009999999996 -40.50256 50.000009999999996 -28.78686 L 50.000009999999996 28.786869999999997 L 50.000009999999996 28.786869999999997 C 50.000009999999996 40.502559999999995 40.50257 50.000009999999996 28.786869999999997 50.000009999999996 L -28.78686 50.000009999999996 L -28.78686 50.000009999999996 C -40.50255 50.000009999999996 -50 40.50257 -50 28.786869999999997 z" stroke-linecap="round" />
</g>
</svg>