<?xml version="1.0" encoding="UTF-8" standalone="no" ?>
<!DOCTYPE svg PUBLIC "-//W3C//DTD SVG 1.1//EN" "http://www.w3.org/Graphics/SVG/1.1/DTD/svg11.dtd">
<svg xmlns="http://www.w3.org/2000/svg" xmlns:xlink="http://www.w3.org/1999/xlink" version="1.1" width="16" height="16" viewBox="0 0 16 16" xml:space="preserve">
<desc>Created with Fabric.js 4.6.0</desc>
<defs>
</defs>
<g transform="matrix(-0.07 0 0 0.07 3.42 5.25)" id="O3CEgiSJMzBjHl5goRC-e"  >
<path style="stroke: rgb(63,90,162); stroke-width: 0; stroke-dasharray: none; stroke-linecap: butt; stroke-dashoffset: 0; stroke-linejoin: miter; stroke-miterlimit: 4; fill: rgb(15,89,135); fill-rule: nonzero; opacity: 1;" vector-effect="non-scaling-stroke"  transform=" translate(0, 0)" d="M -50.00025 -30.83757 C -50.00025 -41.420829999999995 -41.42083 -50.00025 -30.83757 -50.00025 L 30.83757 -50.00025 L 30.83757 -50.00025 C 41.420829999999995 -50.00025 50.00025 -41.42083 50.00025 -30.83757 L 50.00025 30.83757 L 50.00025 30.83757 C 50.00025 41.420829999999995 41.42083 50.00025 30.83757 50.00025 L -30.83757 50.00025 L -30.83757 50.00025 C -41.420829999999995 50.00025 -50.00025 41.42083 -50.00025 30.83757 z" stroke-linecap="round" />
</g>
<g transform="matrix(-0.07 0 0 0.07 10.8 12.58)" id="6mumqOhL4kY3HamdCLab6"  >
<path style="stroke: rgb(63,90,162); stroke-width: 0; stroke-dasharray: none; stroke-linecap: butt; stroke-dashoffset: 0; stroke-linejoin: miter; stroke-miterlimit: 4; fill: rgb(15,89,135); fill-rule: nonzero; opacity: 1;" vector-effect="non-scaling-stroke"  transform=" translate(0, 0)" d="M -50.00025 -30.83757 C -50.00025 -41.420829999999995 -41.42083 -50.00025 -30.83757 -50.00025 L 30.83757 -50.00025 L 30.83757 -50.00025 C 41.420829999999995 -50.00025 50.00025 -41.42083 50.00025 -30.83757 L 50.00025 30.83757 L 50.00025 30.83757 C 50.00025 41.420829999999995 41.42083 50.00025 30.83757 50.00025 L -30.83757 50.00025 L -30.83757 50.00025 C -41.420829999999995 50.00025 -50.00025 41.42083 -50.00025 30.83757 z" stroke-linecap="round" />
</g>
<g transform="matrix(-0.07 0 0 0.07 12.38 3.7)" id="Vqqudu7yc9YbWc_dp3rv8"  >
<path style="stroke: rgb(15,89,135); stroke-width: 0.3; stroke-dasharray: none; stroke-linecap: butt; stroke-dashoffset: 0; stroke-linejoin: miter; stroke-miterlimit: 4; fill: none; fill-rule: nonzero; opacity: 1;" vector-effect="non-scaling-stroke"  transform=" translate(0, 0)" d="M -50.00025 -30.83757 C -50.00025 -41.420829999999995 -41.42083 -50.00025 -30.83757 -50.00025 L 30.83757 -50.00025 L 30.83757 -50.00025 C 41.420829999999995 -50.00025 50.00025 -41.42083 50.00025 -30.83757 L 50.00025 30.83757 L 50.00025 30.83757 C 50.00025 41.420829999999995 41.42083 50.00025 30.83757 50.00025 L -30.83757 50.00025 L -30.83757 50.00025 C -41.420829999999995 50.00025 -50.00025 41.42083 -50.00025 30.83757 z" stroke-linecap="round" />
</g>
<g transform="matrix(-0.07 0 0 0.07 3.42 12.58)" id="rfHbdB__qdjJ0kGpCvIEH"  >
<path style="stroke: rgb(63,90,162); stroke-width: 0; stroke-dasharray: none; stroke-linecap: butt; stroke-dashoffset: 0; stroke-linejoin: miter; stroke-miterlimit: 4; fill: rgb(15,89,135); fill-rule: nonzero; opacity: 1;" vector-effect="non-scaling-stroke"  transform=" translate(0, 0)" d="M -50.00025 -30.83757 C -50.00025 -41.420829999999995 -41.42083 -50.00025 -30.83757 -50.00025 L 30.83757 -50.00025 L 30.83757 -50.00025 C 41.420829999999995 -50.00025 50.00025 -41.42083 50.00025 -30.83757 L 50.00025 30.83757 L 50.00025 30.83757 C 50.00025 41.420829999999995 41.42083 50.00025 30.83757 50.00025 L -30.83757 50.00025 L -30.83757 50.00025 C -41.420829999999995 50.00025 -50.00025 41.42083 -50.00025 30.83757 z" stroke-linecap="round" />
</g>
</svg>